<svg width="14" height="14" viewBox="0 0 14 14" fill="none" xmlns="http://www.w3.org/2000/svg">
<path d="M5.24967 6.99961L6.41634 8.16628L8.74967 5.83294M11.6663 7.58294C11.6663 10.4996 9.62467 11.9579 7.19801 12.8038C7.07094 12.8468 6.9329 12.8448 6.80717 12.7979C4.37467 11.9579 2.33301 10.4996 2.33301 7.58294V3.49961C2.33301 3.3449 2.39447 3.19653 2.50386 3.08713C2.61326 2.97774 2.76163 2.91628 2.91634 2.91628C4.08301 2.91628 5.54134 2.21628 6.55634 1.32961C6.67992 1.22403 6.83713 1.16602 6.99967 1.16602C7.16222 1.16602 7.31943 1.22403 7.44301 1.32961C8.46384 2.22211 9.91634 2.91628 11.083 2.91628C11.2377 2.91628 11.3861 2.97774 11.4955 3.08713C11.6049 3.19653 11.6663 3.3449 11.6663 3.49961V7.58294Z" stroke="#165E00" stroke-opacity="0.7" stroke-width="1.3" stroke-linecap="round" stroke-linejoin="round"/>
</svg>
