<svg width="14" height="14" viewBox="0 0 14 14" fill="none" xmlns="http://www.w3.org/2000/svg">
<path d="M9.33366 9.91622H12.8337M11.0837 8.16622V11.6662M1.16699 6.99956C1.16672 7.11113 1.19844 7.22044 1.25841 7.31453C1.31838 7.40861 1.40407 7.48353 1.50533 7.53039L6.52199 9.81122C6.6732 9.87967 6.83727 9.91507 7.00324 9.91506M1.16699 9.91622C1.16672 10.0278 1.19844 10.1371 1.25841 10.2312C1.31838 10.3253 1.40407 10.4002 1.50533 10.4471L6.52199 12.7279C6.67319 12.7964 6.83726 12.8318 7.00324 12.8318C7.16922 12.8318 7.33329 12.7964 7.48449 12.7279L8.71883 12.1667M7.48449 1.27122C7.3325 1.20189 7.16739 1.16602 7.00033 1.16602C6.83327 1.16602 6.66816 1.20189 6.51616 1.27122L1.51699 3.54622C1.41348 3.59187 1.32547 3.66662 1.26369 3.76139C1.2019 3.85616 1.16901 3.96685 1.16901 4.07997C1.16901 4.1931 1.2019 4.30379 1.26369 4.39856C1.32547 4.49333 1.41348 4.56808 1.51699 4.61372L6.52199 6.89456C6.674 6.96382 6.83912 6.99962 7.00616 6.99956C7.17321 6.99962 7.33832 6.96382 7.49033 6.89456L12.4953 4.61956C12.599 4.57399 12.6872 4.49923 12.7491 4.4044C12.811 4.30957 12.844 4.19877 12.844 4.08552C12.844 3.97226 12.811 3.86146 12.7491 3.76663C12.6872 3.6718 12.599 3.59704 12.4953 3.55147L7.48449 1.27122Z" stroke="#165E00" stroke-opacity="0.7" stroke-width="1.3" stroke-linecap="round" stroke-linejoin="round"/>
</svg>
