<svg xmlns="http://www.w3.org/2000/svg" width="110" height="110" viewBox="0 0 110 110" fill="none"><path d="M83.6423 30.5158C85.2697 30.0095 86.3772 28.471 86.2748 26.8602C86.109 24.1659 82.8467 22.4813 80.609 23.7003C79.8631 24.1072 79.3704 24.8169 79.2528 25.5703C77.4974 28.3414 80.4237 31.5179 83.6423 30.5158ZM81.5071 26.4443C81.6422 26.3446 81.7533 26.216 81.8326 26.068C81.9118 25.9199 81.9571 25.7561 81.9652 25.5884C82.8919 25.4016 83.9663 26.1535 84.019 27.0003C84.0537 27.5579 83.5835 28.1666 82.9718 28.358C82.14 28.6142 80.8576 28.138 81.0234 27.16C81.1475 27.0788 81.2541 26.9737 81.3372 26.8508C81.4202 26.7279 81.478 26.5897 81.5071 26.4443Z" fill="black" fill-opacity="0.7"></path><path d="M93.0303 60.8339C93.2865 60.3246 93.4582 59.7716 93.5366 59.2035C95.3976 46.6168 93.6135 34.0421 91.8504 24.4963C91.3713 21.8804 89.1562 20.051 86.471 20.1535L73.1007 20.6508C70.6189 20.7563 68.8182 23.1295 69.43 25.5571C69.537 25.97 69.6199 26.3783 69.7209 26.7897C66.234 27.2131 64.1124 26.7445 60.0333 26.7445C52.1977 26.7384 46.2818 22.4379 31.7151 22.7121C28.4196 22.8026 22.457 23.1009 19.5669 24.1075C16.297 25.2617 13.6555 27.2628 12.1381 29.725C11.1918 31.2108 10.7669 32.9949 11.7087 34.5047C6.53715 36.7063 5.85304 42.47 9.16208 45.2049C7.45633 46.4254 5.96756 48.6917 5.9766 51.2052C5.98414 53.3479 7.99729 55.8312 9.88838 56.8709C6.73606 59.7309 6.00523 64.9326 9.3866 68.1301C10.4595 69.5571 12.3943 70.9569 13.1447 71.3502C16.7611 73.2489 20.5072 73.2549 31.9954 74.1936C32.1867 74.2087 32.3796 74.2238 32.574 74.2328C30.4011 77.4726 28.6004 81.1643 27.5517 83.8586C23.12 95.2353 30.9135 103.678 35.8635 99.3023C37.2271 98.0983 37.6898 96.3639 38.0861 94.8194C39.0128 92.6902 39.6215 90.3079 40.9566 88.4093C43.0119 85.4875 46.541 84.0484 49.3091 81.7912C56.5043 75.922 58.6952 63.9621 68.2984 61.4532C69.4948 61.1398 70.6445 61.2362 71.9495 61.0735C71.8961 61.6716 71.9844 62.2739 72.2072 62.8315C72.43 63.3891 72.781 63.8864 73.2318 64.2831C69.8836 66.7619 66.2747 74.9004 68.0603 81.6073C69.7585 87.9904 74.4704 93.5205 80.8173 95.3468C89.1592 97.7457 99.4178 93.7254 102.614 84.1163C106.456 75.0932 102.181 64.598 93.0303 60.8324V60.8339ZM34.4169 97.5498C33.4917 95.3498 34.3415 92.856 36.641 91.7936C36.4481 92.321 35.6419 96.4031 34.4169 97.5498ZM65.3224 59.523C53.5117 64.378 56.5254 73.0545 44.2325 81.8439C41.5275 83.7809 39.3145 86.3253 37.7711 89.2727C37.6093 89.2227 37.4382 89.2103 37.2708 89.2365C33.3636 89.9372 30.7221 94.0027 32.1807 98.0908C30.9828 97.6327 29.8677 96.1952 29.3448 94.8993C28.1665 91.9398 28.2795 88.2164 29.6582 84.6813C31.1545 80.8419 33.9784 75.5167 36.9152 72.2754C37.6762 71.4346 36.8324 70.2231 35.9117 70.2834C29.7336 70.4793 18.5437 69.7952 13.6314 68.0457C11.3741 67.2441 10.0903 66.0416 9.59304 64.2635C8.84112 61.5768 10.6704 58.6158 12.2722 57.9317C12.3963 57.8758 12.5092 57.7977 12.6052 57.7012C16.3302 58.2934 28.4392 57.7132 34.9699 58.8976C35.0377 58.9082 35.1055 58.9142 35.1733 58.9142C36.54 58.9142 36.7254 56.9176 35.3737 56.672C27.2428 55.2013 14.1392 56.458 11.1135 54.9783C9.69249 54.2852 8.2414 52.376 8.23688 51.1976C8.22784 49.0247 9.98482 47.0583 11.2461 46.6047C11.3425 46.5716 11.4178 46.5098 11.4977 46.4541C13.6932 47.2045 16.0198 47.2226 17.8717 47.1382C30.4855 46.5716 34.0191 47.9097 34.7845 47.9097C36.1332 47.9097 36.3396 45.9538 35.0166 45.672C29.8933 44.5961 22.5806 44.6624 17.7692 44.8809C13.6148 45.0632 9.07469 44.4484 9.42277 40.3227C9.59606 38.2628 12.3415 36.1849 13.9976 36.2798C14.1355 36.2846 14.2732 36.2653 14.4044 36.2226C18.265 37.0031 25.4692 34.5816 31.135 37.6721C31.3008 37.7627 31.4869 37.8099 31.6759 37.8093C32.8452 37.8093 33.2415 36.2467 32.2184 35.6876C24.8665 31.6764 14.9484 35.7147 13.5817 33.2676C13.2306 32.6408 13.5907 31.6538 14.0533 30.9245C15.3085 28.8872 17.5341 27.2221 20.3158 26.2382C23.0085 25.3024 29.2288 25.0402 31.7708 24.9724C41.5608 24.7343 48.2166 26.9675 49.1599 27.1468C58.0096 29.4417 57.9388 28.8149 63.9135 29.1328C65.9281 29.2383 67.7032 29.3317 70.2407 29.0017L70.2889 29.2067C69.7163 30.6653 70.4592 32.6649 70.5752 34.2305C71.2262 43.0561 70.6762 52.3489 65.3224 59.523ZM71.621 24.9995C71.5609 24.7594 71.5555 24.5089 71.605 24.2664C71.6546 24.0238 71.7579 23.7955 71.9073 23.5982C72.2162 23.1823 72.6893 22.9306 73.1941 22.908L86.5569 22.4108C88.0667 22.3384 89.3521 23.4023 89.6293 24.9046C91.3592 34.2817 93.1117 46.6153 91.2974 58.8871C91.2372 59.3346 91.0488 59.7369 90.8077 60.1031C85.3635 58.6716 79.9674 59.8982 75.7844 63.0113C74.7236 62.9586 74.1118 62.1132 74.1992 61.2272C75.4574 47.9971 74.6618 36.8193 71.621 24.9995ZM86.3173 92.6495C77.8006 92.6495 70.8721 85.721 70.8721 77.2073C70.8721 68.6921 77.8006 61.7636 86.3173 61.7636C94.834 61.7636 101.761 68.6921 101.761 77.2073C101.761 85.721 94.834 92.6495 86.3173 92.6495Z" fill="black" fill-opacity="0.7"></path><path d="M81.1306 72.6855C82.19 71.1515 81.3567 69.1413 79.7263 68.8581C78.6684 68.0896 76.3208 69.3598 76.4353 71.379C76.5679 73.6966 79.6735 74.8041 81.1306 72.6855ZM88.7041 68.7661C87.7969 69.5452 87.7789 71.7542 89.2073 72.7894C90.3706 73.6272 92.111 73.3967 93.0167 72.2952C93.9223 71.1892 93.8002 69.4352 92.753 68.4678C91.4646 67.2744 89.2947 67.7144 88.7041 68.7661ZM85.6858 78.2804C82.5621 78.6571 79.895 81.1796 79.342 84.2746C79.2982 84.5657 79.3697 84.8623 79.5413 85.1014C79.7128 85.3406 79.9709 85.5034 80.2606 85.5552C80.5503 85.607 80.8488 85.5438 81.0926 85.3789C81.3364 85.2141 81.5063 84.9606 81.5661 84.6724C81.9428 82.5629 83.8309 80.7803 85.9571 80.5226C88.0727 80.2634 90.342 81.5457 91.213 83.5046C91.3349 83.7786 91.5606 83.9929 91.8405 84.1004C92.1204 84.208 92.4315 84.1999 92.7055 84.078C92.9795 83.9561 93.1938 83.7304 93.3013 83.4505C93.4088 83.1706 93.4007 82.8594 93.2789 82.5855C91.9995 79.7119 88.8141 77.8931 85.6858 78.2804ZM18.2363 20.4807C18.3018 20.6146 18.3933 20.7343 18.5053 20.8327C18.6174 20.9312 18.7478 21.0065 18.8891 21.0543C19.0304 21.1021 19.1797 21.1214 19.3285 21.1112C19.4773 21.101 19.6226 21.0615 19.7561 20.9949C19.8895 20.9282 20.0085 20.8359 20.106 20.723C20.2036 20.6102 20.2779 20.4792 20.3246 20.3376C20.3713 20.1959 20.3895 20.0464 20.3781 19.8977C20.3668 19.749 20.3261 19.604 20.2584 19.4711L17.9273 14.8119C17.7921 14.5461 17.5572 14.3446 17.274 14.2512C16.9908 14.1579 16.6822 14.1802 16.4154 14.3134C16.1486 14.4466 15.9452 14.6799 15.8496 14.9624C15.7541 15.2448 15.774 15.5537 15.9052 15.8215L18.2363 20.4807ZM24.8634 20.0572C25.1607 20.0196 25.4309 19.8655 25.6146 19.6287C25.7983 19.3919 25.8804 19.0918 25.8428 18.7945L24.8031 10.5083C24.7866 10.3594 24.7406 10.2153 24.6678 10.0843C24.595 9.95327 24.4969 9.83805 24.3792 9.74532C24.2615 9.65259 24.1266 9.5842 23.9822 9.54411C23.8378 9.50403 23.6869 9.49306 23.5382 9.51184C23.3895 9.53063 23.2461 9.57879 23.1162 9.65352C22.9863 9.72826 22.8726 9.82807 22.7817 9.94717C22.6907 10.0663 22.6244 10.2022 22.5865 10.3472C22.5486 10.4922 22.5399 10.6433 22.5609 10.7916L23.6006 19.0778C23.6382 19.3751 23.7924 19.6453 24.0292 19.829C24.266 20.0127 24.566 20.0948 24.8634 20.0572ZM31.5146 20.3119C33.3288 18.4495 34.8508 16.3234 36.0291 14.0057C36.165 13.739 36.1893 13.4292 36.0968 13.1445C36.0043 12.8597 35.8024 12.6235 35.5356 12.4876C35.2689 12.3517 34.9591 12.3274 34.6744 12.4199C34.3896 12.5125 34.1534 12.7143 34.0175 12.9811C32.9406 15.0945 31.5513 17.0335 29.8963 18.7327C29.7906 18.8386 29.707 18.9643 29.6503 19.1027C29.5936 19.241 29.565 19.3893 29.566 19.5388C29.567 19.6884 29.5977 19.8362 29.6563 19.9738C29.7148 20.1114 29.8001 20.236 29.9072 20.3404C30.0143 20.4447 30.141 20.5268 30.28 20.5819C30.4191 20.6369 30.5677 20.6639 30.7172 20.6611C30.8667 20.6583 31.0141 20.6259 31.151 20.5657C31.2879 20.5055 31.4115 20.4202 31.5146 20.3119Z" fill="black" fill-opacity="0.7"></path></svg>