<svg width="110" height="110" viewBox="0 0 110 110" fill="none" xmlns="http://www.w3.org/2000/svg">
<path d="M86.7996 61.1566C90.1578 58.0992 93.7118 54.8073 96.74 51.3957C99.1665 48.6619 100.315 46.6366 98.1279 42.2123C98.0923 42.0425 98.081 41.871 98.0212 41.7028C97.7904 41.0498 97.3805 40.4749 96.8384 40.0438C96.2963 39.6127 95.6439 39.3428 94.9557 39.265L89.679 38.6503C94.4429 34.5479 94.3637 35.0316 94.3782 32.157C94.5001 31.7906 94.5241 31.3987 94.4478 31.0202C94.3715 30.6416 94.1975 30.2896 93.9431 29.9991C89.7065 25.1348 89.7906 24.8614 88.7278 24.7984C88.4847 24.7837 88.2411 24.8175 88.0112 24.8978C87.7813 24.978 87.5696 25.1031 87.3884 25.2659C83.7665 28.5222 74.6979 35.965 73.7193 36.7835L70.0893 36.3548C66.38 27.922 60.749 13.25 55.1422 9.93865C53.8513 9.17512 51.2404 7.78718 49.7021 8.26115C49.5144 8.24174 49.3332 8.19644 49.1359 8.20777C48.4436 8.22473 47.7702 8.43649 47.1928 8.81874C46.6154 9.201 46.1574 9.73828 45.8715 10.3689L34.0044 36.1461C33.9175 36.3347 33.7874 36.5002 33.6247 36.6292C33.462 36.7582 33.2712 36.8471 33.0678 36.8887L5.0922 41.7319C2.06882 42.2706 0.960734 46.0445 3.22059 48.1248L24.0721 67.3506C24.2255 67.4949 24.3427 67.6734 24.4141 67.8716C24.4855 68.0698 24.5091 68.282 24.4829 68.491L20.4501 96.5831C20.0296 99.5337 22.7957 101.256 25.8159 101.392C33.7472 102.475 50.045 101.866 50.045 100.507C50.045 99.7116 43.9788 99.0662 36.4956 99.0662C35.1449 99.0662 33.8426 99.0872 32.6132 99.126C33.9009 98.4304 47.2643 90.601 52.9632 86.9548C78.4315 99.2651 77.3315 99.4075 79.2015 99.3023C81.3578 99.8297 83.9493 98.2622 84.8665 96.0751C85.9616 93.4642 85.3971 90.4894 84.8099 87.72C81.4209 71.2556 81.0148 71.4416 80.8741 67.522C82.7959 65.2978 84.7662 63.0088 86.7996 61.1566ZM88.5612 27.4739C90.3212 29.4992 91.3112 30.7076 92.0326 31.4242C77.4754 43.521 67.5706 52.4035 55.8993 63.8386C49.2184 57.4279 45.0481 54.1667 38.6503 46.9423C40.4701 45.2228 41.9422 43.762 43.6262 42.1703C54.8413 54.0713 54.83 55.2667 56.0254 55.2926C56.6563 55.2975 56.6531 55.3088 60.4351 51.551C65.6181 46.4053 83.9881 31.5731 88.5612 27.4739ZM52.9568 84.2469C52.4171 83.9839 51.8217 83.8556 51.2216 83.8731C50.6215 83.8906 50.0346 84.0532 49.5112 84.3472L24.7612 98.2363C24.5512 98.3554 24.312 98.4131 24.0708 98.4028C23.8296 98.3924 23.5962 98.3145 23.3971 98.1779C23.1981 98.0413 23.0415 97.8514 22.9452 97.6301C22.8488 97.4087 22.8167 97.1648 22.8524 96.926L26.8851 68.8145C26.96 68.2213 26.894 67.6188 26.6925 67.0558C26.491 66.4929 26.1596 65.9853 25.7253 65.5744L4.86573 46.3406C4.68915 46.1777 4.56153 45.9688 4.49721 45.7373C4.4329 45.5058 4.43445 45.261 4.50169 45.0304C4.56893 44.7998 4.69919 44.5925 4.87781 44.4318C5.05644 44.2712 5.27635 44.1636 5.51279 44.1212L33.5078 39.2731C34.0946 39.1602 34.646 38.9091 35.1164 38.5406C35.5868 38.172 35.9625 37.6967 36.2125 37.1539L48.0763 11.3832C48.4807 10.5032 49.8218 10.2654 50.3815 11.3234L63.6349 36.4082C63.9184 36.939 64.3248 37.3943 64.82 37.7362C65.3153 38.0781 65.8851 38.2967 66.4819 38.3736L71.1731 38.9269C60.0421 48.3497 60.5646 48.0116 57.6463 50.9007C48.9499 41.6494 48.6684 40.056 46.1287 39.6597C45.3376 39.5367 43.9481 39.3329 43.149 39.6403C43.115 39.6532 43.1004 39.6726 43.1004 39.6985C42.1687 39.9444 42.2997 40.1709 36.7981 45.3554C36.3948 45.7414 36.1552 46.2676 36.129 46.8252C36.1029 47.3829 36.292 47.9292 36.6573 48.3513C43.5356 56.1484 47.8385 59.4031 55.0629 66.4042C55.0824 66.4253 55.1115 66.4317 55.1309 66.4495C55.2716 66.6048 55.4026 66.7569 55.6647 66.8523C56.7 67.2309 58.02 66.9963 58.8353 66.2473C68.1287 57.7159 77.6162 49.1116 87.1862 40.8017L94.6759 41.6753C95.7435 41.8047 96.1868 43.0875 95.4524 43.8461L75.6685 64.2188C75.2528 64.6531 74.948 65.1814 74.7802 65.7588C74.6123 66.3361 74.5863 66.9454 74.7044 67.535L80.2578 95.3536C80.3059 95.5889 80.2873 95.8329 80.2042 96.0581C80.1211 96.2834 79.9768 96.4809 79.7874 96.6286C79.5981 96.7762 79.3713 96.868 79.1326 96.8937C78.8939 96.9194 78.6527 96.8779 78.4363 96.7739L52.9568 84.2469ZM88.7149 9.00527C88.27 11.0236 88.0192 13.0798 87.9659 15.1459C87.9576 15.4674 88.0774 15.779 88.2988 16.0123C88.5202 16.2456 88.8252 16.3814 89.1468 16.3898H89.1791C89.4956 16.3899 89.7997 16.2663 90.0263 16.0454C90.253 15.8245 90.3843 15.5237 90.3924 15.2073C90.4393 13.3017 90.6738 11.3913 91.0831 9.52938C91.1428 9.21913 91.0791 8.89782 90.9056 8.63379C90.732 8.36977 90.4623 8.18385 90.1539 8.11558C89.8454 8.04731 89.5224 8.10207 89.2537 8.26822C88.985 8.43437 88.7916 8.69879 88.7149 9.00527ZM99.8378 11.291C99.6085 11.0652 99.2991 10.9396 98.9773 10.9417C98.6555 10.9438 98.3477 11.0735 98.1215 11.3023C96.3673 13.0837 94.7722 15.015 93.3543 17.0741C93.2296 17.2563 93.157 17.469 93.1442 17.6893C93.1313 17.9097 93.1788 18.1294 93.2814 18.3248C93.384 18.5202 93.5379 18.684 93.7266 18.7985C93.9153 18.913 94.1316 18.974 94.3523 18.9748C95.6287 18.9748 95.4184 17.5012 99.8491 13.0073C99.9611 12.8939 100.05 12.7595 100.11 12.6119C100.17 12.4642 100.2 12.3062 100.199 12.1468C100.198 11.9874 100.166 11.8298 100.104 11.683C100.042 11.5361 99.9513 11.4029 99.8378 11.291ZM106.768 20.4889C106.604 20.4889 98.7734 20.7736 98.9368 20.7801C98.6221 20.7957 98.3259 20.933 98.1107 21.1631C97.8955 21.3932 97.7783 21.6979 97.7837 22.0129C97.7892 22.3279 97.9169 22.6284 98.14 22.8508C98.363 23.0733 98.6638 23.2003 98.9788 23.205C99.1422 23.205 106.973 22.9203 106.81 22.9154C107.132 22.9098 107.438 22.7767 107.662 22.5452C107.885 22.3137 108.008 22.0029 108.002 21.6811C107.996 21.3594 107.863 21.053 107.632 20.8294C107.4 20.6058 107.09 20.4834 106.768 20.4889Z" fill="black" fill-opacity="0.7"/>
</svg>
