<svg width="86" height="9" viewBox="0 0 86 9" fill="none" xmlns="http://www.w3.org/2000/svg">
<g clip-path="url(#clip0_4198_12)">
<path d="M2.68409 8.78586H0.0244141V0.210991H8.49858V2.37391H2.68409V3.65374H8.28637V5.80386H2.68409V8.78586ZM13.9797 8.91385C10.6693 8.91385 9.14139 7.46764 9.14139 5.18954V0.210991H11.8011V4.99756C11.8011 6.2134 12.183 6.58455 13.9797 6.58455C15.7764 6.58455 16.1584 6.2134 16.1584 4.99756V0.210991H18.8181V5.18954C18.8181 7.46764 17.2902 8.91385 13.9797 8.91385ZM22.2746 8.78586H19.6149V0.210991H22.4444L25.0758 3.42337L26.4622 5.39431H26.6461L26.5188 3.52575V0.210991H29.1784V8.78586H26.349L23.5479 5.4839L22.3453 3.79452H22.1614L22.2746 5.4327V8.78586ZM34.9835 8.78586H30.1876V0.210991H34.9835C38.11 0.210991 40.0906 1.78518 40.0906 4.49843C40.0906 7.21167 38.11 8.78586 34.9835 8.78586ZM34.9835 2.37391H32.8472V6.62295H34.9835C36.667 6.62295 37.247 6.43097 37.247 4.49843C37.247 2.56588 36.667 2.37391 34.9835 2.37391ZM43.2135 8.78586H40.2284L44.317 0.210991H48.1226L52.2253 8.78586H49.1694L48.4478 7.19887H43.9491L43.2135 8.78586ZM45.5054 3.83291L44.9538 5.03596H47.4718L46.9201 3.83291L46.2977 2.3867H46.1136L45.5054 3.83291ZM57.4616 8.78586H52.6658V0.210991H57.4616C60.5882 0.210991 62.5688 1.78518 62.5688 4.49843C62.5688 7.21167 60.5882 8.78586 57.4616 8.78586ZM57.4616 2.37391H55.3252V6.62295H57.4616C59.145 6.62295 59.7251 6.43097 59.7251 4.49843C59.7251 2.56588 59.145 2.37391 57.4616 2.37391ZM68.3794 8.91385C65.0832 8.91385 63.1307 7.17327 63.1307 4.49843C63.1307 1.82358 65.0832 0.0830078 68.3794 0.0830078C71.7605 0.0830078 73.6846 1.82358 73.6846 4.49843C73.6846 7.17327 71.7605 8.91385 68.3794 8.91385ZM68.3794 6.61015C70.3035 6.61015 70.8551 6.2006 70.8551 4.49843C70.8551 2.79625 70.3035 2.3867 68.3794 2.3867C66.4553 2.3867 65.9601 2.79625 65.9601 4.49843C65.9601 6.2006 66.4553 6.61015 68.3794 6.61015ZM77.0536 8.78586H74.3937V0.210991H79.9253C82.4296 0.210991 83.7451 1.15807 83.7451 2.83465C83.7451 4.19127 82.9955 4.99756 81.1844 5.20233V5.33032C82.1609 5.56069 82.4718 5.98303 82.8255 6.63575L84 8.78586H80.9299L79.7981 6.68694C79.4587 6.04702 79.1757 5.86785 78.1427 5.86785H77.0536V8.78586ZM77.0536 2.37391V4.07608H79.8973C80.6754 4.07608 80.9584 3.9481 80.9584 3.2186C80.9584 2.54028 80.6754 2.37391 79.8973 2.37391H77.0536Z" fill="#E6E3FE"/>
</g>
<defs>
<clipPath id="clip0_4198_12">
<rect width="86" height="9" fill="white"/>
</clipPath>
</defs>
</svg>
