<svg width="62" height="62" viewBox="0 0 62 62" fill="none" xmlns="http://www.w3.org/2000/svg">
<path d="M45.2087 16.791H45.2345M18.0837 5.16602H43.917C51.0507 5.16602 56.8337 10.949 56.8337 18.0827V43.916C56.8337 51.0497 51.0507 56.8327 43.917 56.8327H18.0837C10.95 56.8327 5.16699 51.0497 5.16699 43.916V18.0827C5.16699 10.949 10.95 5.16602 18.0837 5.16602ZM41.3337 29.3719C41.6525 31.5218 41.2852 33.7176 40.2842 35.6468C39.2832 37.576 37.6993 39.1405 35.7579 40.1177C33.8164 41.0948 31.6163 41.435 29.4704 41.0897C27.3246 40.7444 25.3422 39.7312 23.8053 38.1944C22.2684 36.6575 21.2553 34.6751 20.91 32.5292C20.5647 30.3834 20.9048 28.1832 21.882 26.2418C22.8592 24.3004 24.4236 22.7165 26.3529 21.7155C28.2821 20.7144 30.4779 20.3472 32.6278 20.666C34.8209 20.9912 36.8512 22.0131 38.4189 23.5808C39.9865 25.1485 41.0085 27.1788 41.3337 29.3719Z" stroke="white" stroke-opacity="0.8" stroke-width="5" stroke-linecap="round" stroke-linejoin="round"/>
</svg>
