<svg width="50" height="25" viewBox="0 0 50 25" fill="none" xmlns="http://www.w3.org/2000/svg">
<g clip-path="url(#clip0_4144_666)">
<path d="M0 8.30997L9.9909 24.93H19.9818L24.9773 16.62H14.9864L4.99552 0L0 8.30997Z" fill="white" fill-opacity="0.8"/>
<path d="M20.0107 8.30997L30.0018 24.93H39.9637L44.9881 16.62H34.9973L25.0064 0L20.0107 8.30997Z" fill="white" fill-opacity="0.8"/>
<path d="M44.502 0.269784C44.7183 -0.0899274 45.2589 -0.0899281 45.475 0.269782L49.9088 8.0402C50.0091 8.20714 50.0091 8.41282 49.9088 8.57977L45.475 16.3502C45.2589 16.7099 44.7183 16.7099 44.502 16.3502L40.0683 8.57977C39.9681 8.41282 39.9681 8.20714 40.0683 8.0402L44.502 0.269784Z" fill="white" fill-opacity="0.8"/>
</g>
<defs>
<clipPath id="clip0_4144_666">
<rect width="50" height="25" fill="white"/>
</clipPath>
</defs>
</svg>
