<svg width="110" height="110" viewBox="0 0 110 110" fill="none" xmlns="http://www.w3.org/2000/svg">
<path d="M12.7535 63.4761C12.8138 63.5348 12.8892 63.5665 12.9615 63.6087C13.3578 64.4194 14.1037 65.0552 14.9807 65.2813C22.087 62.7663 29.8126 62.4062 37.1675 64.0366C37.3182 64.9151 37.3122 65.1366 37.5503 65.447C34.0935 67.0624 33.1231 71.8978 36.4246 74.4791C35.7571 75.0426 35.0082 76.994 35.3608 78.8821C35.8701 81.62 37.9887 82.494 38.2072 82.6944C39.5326 84.0847 40.9352 85.3993 42.4083 86.6318C44.2181 88.1583 46.2161 89.5973 48.5337 90.0689C50.8512 90.5421 53.5545 89.8158 54.7992 87.7981C58.5181 89.3155 62.457 86.0743 61.7352 82.1294C62.463 82.0148 63.1818 81.8702 63.8975 81.7074C67.2081 87.5495 68.7993 94.2881 68.4 100.966C68.3819 101.26 68.4904 101.539 68.6727 101.756L68.6426 101.783C68.8686 101.938 68.07 101.382 70.499 103.078C82.4242 94.2429 89.306 79.0373 88.102 64.2461C96.5811 51.7015 98.5219 35.7817 97.2396 20.5791C96.9231 16.8346 95.9075 10.982 94.1761 8.20634C92.4598 3.80182 84.0305 7.13196 79.513 8.77593C66.1277 13.402 53.7866 21.0598 45.5396 32.3641C31.2185 35.5074 17.6327 47.7837 12.4642 62.2751C12.3135 62.697 12.4266 63.1687 12.7535 63.4761ZM49.5101 86.1074C48.6844 86.3124 47.8526 86.1873 47.167 85.7488L38.8868 80.4447C38.5446 80.2231 38.2521 79.933 38.0275 79.5928C37.8029 79.2525 37.6512 78.8695 37.5819 78.4677C37.3287 77.1085 37.9526 76.2587 38.1635 75.7689C42.2366 78.7977 46.7164 81.6261 51.7508 84.3369C51.6152 84.4876 51.0652 85.7141 49.5101 86.1074ZM57.9394 82.0299C57.0805 83.3062 55.5059 83.7869 54.2778 83.1435C47.9701 79.8495 42.5545 76.4078 37.7175 72.6257C35.519 70.9078 36.9822 67.21 39.7367 67.21C40.1692 67.21 40.6001 67.308 41.0024 67.5174C46.6109 70.4257 52.1381 73.9728 57.4316 78.0624C58.6024 78.9665 58.8255 80.7099 57.9394 82.0299ZM70.719 98.5028C70.6452 92.4513 69.0464 86.4525 66.1337 81.1168C73.4163 78.9318 79.8792 74.3374 84.9045 68.4532C84.2611 79.5346 79.0127 90.8224 70.719 98.5028ZM80.2513 10.9126C82.7723 9.99798 91.607 6.64524 92.1404 9.22949C92.8155 12.5009 93.3685 17.1314 93.6593 21.9322C94.7081 39.2987 90.5989 52.5032 84.1918 61.8758C79.18 69.2066 69.7637 75.4118 60.1033 77.7896C59.7829 77.2005 59.3443 76.6839 58.8149 76.2722C53.4144 72.1013 47.7697 68.4803 42.0422 65.5103C41.2726 65.1178 40.4143 64.9319 39.5513 64.9709C39.5787 64.8295 39.5787 64.6843 39.5513 64.5429C35.7631 45.9047 48.3468 21.9368 80.2513 10.9126ZM43.6229 35.191C38.4363 43.4078 36.3403 52.1024 36.7064 59.8521C29.7105 58.0768 22.3499 58.3673 15.5156 60.6884C20.6494 48.7285 31.6992 38.7155 43.6229 35.191Z" fill="black" fill-opacity="0.7"/>
<path d="M77.8133 36.0441C84.9347 36.0441 89.1689 28.5098 85.6685 22.9631C83.8753 20.1152 80.4322 18.3567 77.0734 18.545C73.9768 18.7334 71.483 20.5099 70.05 23.5447C67.6089 28.7223 71.1259 36.0441 77.8133 36.0441ZM35.4949 85.7053C35.6126 85.6088 35.7096 85.4895 35.78 85.3545C35.8505 85.2196 35.8929 85.0718 35.9049 84.9201C35.9168 84.7684 35.898 84.6158 35.8495 84.4715C35.801 84.3272 35.7239 84.1942 35.6227 84.0805C35.5216 83.9667 35.3985 83.8746 35.2609 83.8096C35.1232 83.7446 34.9739 83.708 34.8218 83.7022C34.6697 83.6963 34.518 83.7212 34.3758 83.7754C34.2335 83.8296 34.1037 83.912 33.9941 84.0176C31.549 86.1907 29.3261 88.6015 27.3579 91.2143C27.2687 91.333 27.2037 91.468 27.1666 91.6118C27.1296 91.7555 27.1212 91.9052 27.142 92.0521C27.184 92.349 27.3421 92.617 27.5817 92.7973C27.8213 92.9775 28.1227 93.0552 28.4195 93.0132C28.7164 92.9713 28.9844 92.8131 29.1647 92.5735C31.0413 90.0794 33.1618 87.7786 35.4949 85.7053ZM32.1105 102.472C32.2362 102.551 32.3762 102.605 32.5226 102.63C32.669 102.655 32.8189 102.651 32.9637 102.618C33.1086 102.585 33.2455 102.524 33.3667 102.438C33.488 102.353 33.591 102.244 33.6701 102.118L39.8784 92.2405C39.9574 92.1148 40.0109 91.9748 40.0359 91.8285C40.0608 91.6822 40.0567 91.5323 40.0238 91.3876C39.9908 91.2428 39.9297 91.106 39.8438 90.9849C39.758 90.8637 39.6491 90.7607 39.5235 90.6817C39.3978 90.6026 39.2578 90.5491 39.1115 90.5241C38.9652 90.4992 38.8153 90.5033 38.6706 90.5362C38.5258 90.5692 38.389 90.6303 38.2679 90.7162C38.1467 90.802 38.0437 90.9109 37.9647 91.0365L31.7564 100.914C31.597 101.168 31.5449 101.474 31.6116 101.767C31.6783 102.059 31.8583 102.313 32.1121 102.472H32.1105ZM45.0679 93.238L43.5159 102.669C43.4689 102.964 43.5405 103.266 43.7152 103.508C43.8899 103.75 44.1534 103.914 44.4481 103.962C44.7428 104.011 45.0448 103.941 45.288 103.768C45.5312 103.594 45.6959 103.332 45.746 103.037L47.2981 93.6057C47.3468 93.31 47.2761 93.007 47.1015 92.7634C46.9268 92.5198 46.6626 92.3556 46.3668 92.3068C46.2203 92.2812 46.07 92.2851 45.925 92.3182C45.7799 92.3514 45.6429 92.4131 45.5219 92.4998C45.401 92.5865 45.2986 92.6964 45.2206 92.8232C45.1427 92.95 45.0908 93.091 45.0679 93.238Z" fill="black" fill-opacity="0.7"/>
</svg>
