<svg width="159" height="159" viewBox="0 0 159 159" fill="none" xmlns="http://www.w3.org/2000/svg">
<path d="M77.5432 135.597L79.8672 139.587H81.4072V135.597H82.6812V145.355H79.5312C78.7939 145.355 78.1732 145.229 77.6692 144.977C77.1559 144.725 76.7732 144.384 76.5212 143.955C76.2692 143.525 76.1432 143.035 76.1432 142.485C76.1432 141.813 76.3392 141.22 76.7312 140.707C77.1139 140.193 77.6926 139.853 78.4672 139.685L76.0172 135.597H77.5432ZM81.4072 140.609H79.5312C78.8406 140.609 78.3226 140.777 77.9772 141.113C77.6319 141.458 77.4592 141.915 77.4592 142.485C77.4592 143.063 77.6319 143.511 77.9772 143.829C78.3132 144.146 78.8312 144.305 79.5312 144.305H81.4072V140.609Z" fill="black" fill-opacity="0.5"/>
<path d="M68.1434 134.566C69.0313 134.743 69.8005 135.11 70.4509 135.668C71.0994 136.234 71.5651 136.931 71.8478 137.758C72.1196 138.593 72.1626 139.477 71.9769 140.411C71.7912 141.344 71.414 142.14 70.8455 142.798C70.2659 143.463 69.569 143.928 68.7547 144.195C67.9387 144.47 67.0867 144.519 66.1987 144.343C65.3016 144.164 64.5288 143.792 63.8802 143.225C63.2299 142.667 62.7679 141.976 62.4943 141.151C62.2207 140.326 62.1777 139.442 62.3652 138.499C62.5527 137.556 62.9308 136.756 63.4994 136.098C64.068 135.44 64.7603 134.974 65.5764 134.698C66.3906 134.432 67.2463 134.388 68.1434 134.566ZM67.9276 135.651C67.2594 135.518 66.6288 135.555 66.036 135.76C65.434 135.964 64.9246 136.324 64.5078 136.841C64.0819 137.356 63.7933 137.993 63.6422 138.753C63.4892 139.522 63.5119 140.221 63.7103 140.85C63.8976 141.487 64.2258 142.014 64.6949 142.431C65.1639 142.848 65.7371 143.123 66.4145 143.258C67.0919 143.393 67.727 143.357 68.3198 143.152C68.9127 142.946 69.4221 142.586 69.848 142.071C70.263 141.564 70.547 140.925 70.6999 140.157C70.851 139.397 70.8329 138.698 70.6456 138.062C70.449 137.423 70.1163 136.895 69.6472 136.479C69.1691 136.06 68.5959 135.784 67.9276 135.651Z" fill="black" fill-opacity="0.5"/>
<path d="M57.8005 132.596L54.6445 131.289L55.041 130.331L59.374 132.126L55.6398 141.141L54.4628 140.654L57.8005 132.596Z" fill="black" fill-opacity="0.5"/>
<path d="M44.3922 134.269L46.2045 131.557L43.2478 129.581L43.8311 128.708L46.7878 130.684L48.6545 127.89L45.3486 125.681L45.932 124.808L50.2972 127.725L44.8681 135.85L40.5029 132.933L41.0863 132.06L44.3922 134.269Z" fill="black" fill-opacity="0.5"/>
<path d="M29.4615 109.896L31.826 113.435L34.0659 112.881L34.8126 113.999L24.7856 116.455L23.9689 115.233L30.0835 106.921L30.8302 108.039L29.4615 109.896ZM28.8023 110.774L25.6849 114.979L30.7624 113.708L28.8023 110.774Z" fill="black" fill-opacity="0.5"/>
<path d="M16.7999 88.3544C17.5963 88.196 18.3146 88.3386 18.9548 88.7823C19.584 89.2186 20.0097 89.9951 20.2318 91.1119L20.5978 92.9518L24.5935 92.157L24.8421 93.4066L15.2716 95.3103L14.657 92.2208C14.4422 91.1406 14.5401 90.2694 14.9508 89.6073C15.3597 88.9359 15.9761 88.5183 16.7999 88.3544ZM19.202 91.3167C19.0636 90.621 18.8106 90.1385 18.443 89.869C18.0753 89.5995 17.6123 89.5204 17.0539 89.6314C15.8731 89.8663 15.4174 90.6612 15.6869 92.0159L16.0529 93.8559L19.568 93.1567L19.202 91.3167Z" fill="black" fill-opacity="0.5"/>
<path d="M20.83 76.9675V81.2235L23 82.0075V83.3515L13.298 79.8235L13.298 78.3535L23 74.8395V76.1835L20.83 76.9675ZM19.794 77.3315L14.866 79.0955L19.794 80.8595V77.3315ZM11.128 77.7235L12.724 80.7055H11.772L10.022 77.7235H11.128Z" fill="black" fill-opacity="0.5"/>
<path d="M18.1304 63.8077C17.5192 63.9621 17.0124 64.261 16.6102 64.7043C16.1988 65.1459 15.9267 65.7008 15.7938 66.369C15.6608 67.0373 15.6963 67.6724 15.9001 68.2744C16.0966 68.8654 16.4522 69.3739 16.967 69.7999C17.4744 70.2148 18.1035 70.497 18.8541 70.6463C19.6047 70.7956 20.2939 70.7756 20.9215 70.5865C21.551 70.3881 22.0741 70.0544 22.491 69.5854C22.9005 69.1054 23.1717 68.5313 23.3046 67.863C23.4903 66.9293 23.3641 66.1049 22.9259 65.3896C22.4877 64.6744 21.8026 64.1718 20.8706 63.8817L20.1113 67.6989L19.0952 67.4968L20.1194 62.3477L21.0806 62.5389C21.8533 62.7687 22.5273 63.1597 23.1026 63.7119C23.6688 64.2622 24.0758 64.9189 24.3237 65.682C24.5625 66.4432 24.5981 67.2448 24.4306 68.087C24.2539 68.975 23.8868 69.7441 23.3292 70.3945C22.7625 71.0431 22.0656 71.5087 21.2385 71.7915C20.4133 72.0651 19.5338 72.109 18.6001 71.9233C17.6664 71.7375 16.8707 71.3604 16.213 70.7918C15.5479 70.2123 15.0823 69.5154 14.816 68.7011C14.5406 67.885 14.4912 67.033 14.6678 66.1451C14.8699 65.129 15.3001 64.282 15.9583 63.604C16.6184 62.9169 17.4416 62.4859 18.4281 62.311L18.1304 63.8077Z" fill="black" fill-opacity="0.5"/>
<path d="M18.6891 53.6309L27.7043 57.3651L27.2167 58.5421L18.2015 54.8079L18.6891 53.6309Z" fill="black" fill-opacity="0.5"/>
<path d="M35.0168 44.696L34.309 45.7553L25.0017 45.699L31.4622 50.0158L30.7544 51.0751L22.6293 45.646L23.3371 44.5867L32.6327 44.6353L26.1838 40.3263L26.8916 39.267L35.0168 44.696Z" fill="black" fill-opacity="0.5"/>
<path d="M39.9247 36.3536L36.9153 39.3631L37.8953 41.4519L36.945 42.4022L32.5793 33.0472L33.6188 32.0078L42.9639 36.3833L42.0135 37.3337L39.9247 36.3536ZM38.9348 35.8785L34.2028 33.6412L36.4401 38.3731L38.9348 35.8785Z" fill="black" fill-opacity="0.5"/>
<path d="M59.1037 28.5932L57.9266 29.0807L53.0995 17.4269L54.2765 16.9393L59.1037 28.5932Z" fill="black" fill-opacity="0.5"/>
<path d="M81.4568 23.4033L79.1328 19.4133L77.5928 19.4133V23.4033H76.3188V13.6453H79.4688C80.2061 13.6453 80.8268 13.7713 81.3308 14.0233C81.8441 14.2753 82.2268 14.616 82.4788 15.0453C82.7308 15.4747 82.8568 15.9647 82.8568 16.5153C82.8568 17.1873 82.6608 17.78 82.2688 18.2933C81.8861 18.8067 81.3074 19.1473 80.5328 19.3153L82.9828 23.4033H81.4568ZM77.5928 18.3913L79.4688 18.3913C80.1594 18.3913 80.6774 18.2233 81.0228 17.8873C81.3681 17.542 81.5408 17.0847 81.5408 16.5153C81.5408 15.9367 81.3681 15.4887 81.0228 15.1713C80.6868 14.854 80.1688 14.6953 79.4688 14.6953H77.5928V18.3913Z" fill="black" fill-opacity="0.5"/>
<path d="M90.8566 24.4336C89.9687 24.257 89.1995 23.8899 88.5491 23.3323C87.9006 22.7655 87.4349 22.0686 87.1522 21.2416C86.8804 20.4072 86.8374 19.5231 87.0231 18.5894C87.2088 17.6557 87.586 16.86 88.1545 16.2023C88.7341 15.5373 89.431 15.0716 90.2453 14.8053C91.0613 14.5299 91.9133 14.4805 92.8013 14.6571C93.6984 14.8356 94.4712 15.2082 95.1198 15.7749C95.7701 16.3325 96.2321 17.0239 96.5057 17.8492C96.7793 18.6744 96.8223 19.5585 96.6348 20.5013C96.4473 21.4442 96.0692 22.2445 95.5006 22.9022C94.932 23.5599 94.2397 24.0265 93.4236 24.3019C92.6094 24.5681 91.7537 24.6121 90.8566 24.4336ZM91.0724 23.3489C91.7406 23.4818 92.3712 23.4454 92.964 23.2398C93.566 23.036 94.0754 22.6758 94.4922 22.1592C94.9181 21.6444 95.2067 21.0071 95.3578 20.2473C95.5108 19.4784 95.4881 18.7792 95.2897 18.1497C95.1024 17.5129 94.7742 16.9861 94.3051 16.5693C93.8361 16.1524 93.2629 15.8766 92.5855 15.7419C91.9081 15.6072 91.273 15.6426 90.6802 15.8482C90.0873 16.0538 89.5779 16.4141 89.152 16.9289C88.737 17.4363 88.453 18.0745 88.3001 18.8434C88.149 19.6032 88.1671 20.3015 88.3544 20.9383C88.551 21.5769 88.8837 22.1046 89.3528 22.5215C89.8309 22.9402 90.4041 23.2159 91.0724 23.3489Z" fill="black" fill-opacity="0.5"/>
<path d="M101.199 26.4042L104.355 27.7114L103.959 28.6686L99.626 26.8738L103.36 17.8585L104.537 18.3461L101.199 26.4042Z" fill="black" fill-opacity="0.5"/>
<path d="M114.608 24.7308L112.796 27.4431L115.752 29.4187L115.169 30.2917L112.212 28.3161L110.345 31.1099L113.651 33.3188L113.068 34.1919L108.703 31.2751L114.132 23.15L118.497 26.0667L117.914 26.9398L114.608 24.7308Z" fill="black" fill-opacity="0.5"/>
<path d="M129.538 49.104L127.174 45.5652L124.934 46.119L124.187 45.0015L134.214 42.5447L135.031 43.767L128.916 52.0789L128.17 50.9614L129.538 49.104ZM130.198 48.2257L133.315 44.0212L128.238 45.2923L130.198 48.2257Z" fill="black" fill-opacity="0.5"/>
<path d="M142.201 70.6456C141.405 70.804 140.686 70.6614 140.046 70.2177C139.417 69.7814 138.991 69.0049 138.769 67.8881L138.403 66.0482L134.407 66.843L134.159 65.5934L143.729 63.6897L144.344 66.7792C144.559 67.8594 144.461 68.7306 144.05 69.3927C143.641 70.0641 143.025 70.4817 142.201 70.6456ZM139.799 67.6833C139.937 68.379 140.19 68.8615 140.558 69.131C140.926 69.4005 141.389 69.4796 141.947 69.3686C143.128 69.1337 143.584 68.3388 143.314 66.9841L142.948 65.1441L139.433 65.8433L139.799 67.6833Z" fill="black" fill-opacity="0.5"/>
<path d="M138.17 82.0325V77.7765L136 76.9925V75.6485L145.702 79.1765V80.6465L136 84.1605V82.8165L138.17 82.0325ZM139.206 81.6685L144.134 79.9045L139.206 78.1405V81.6685ZM147.872 81.2765L146.276 78.2945H147.228L148.978 81.2765H147.872Z" fill="black" fill-opacity="0.5"/>
<path d="M140.87 95.1923C141.481 95.0379 141.988 94.739 142.39 94.2957C142.801 93.8541 143.073 93.2992 143.206 92.631C143.339 91.9627 143.304 91.3276 143.1 90.7256C142.903 90.1346 142.548 89.6261 142.033 89.2001C141.526 88.7852 140.897 88.503 140.146 88.3537C139.395 88.2044 138.706 88.2244 138.078 88.4135C137.449 88.6119 136.926 88.9456 136.509 89.4146C136.1 89.8946 135.828 90.4687 135.695 91.137C135.51 92.0707 135.636 92.8951 136.074 93.6104C136.512 94.3256 137.197 94.8282 138.129 95.1183L138.889 91.3011L139.905 91.5032L138.881 96.6523L137.919 96.4611C137.147 96.2313 136.473 95.8403 135.897 95.2881C135.331 94.7378 134.924 94.0811 134.676 93.318C134.438 92.5568 134.402 91.7552 134.569 90.913C134.746 90.025 135.113 89.2559 135.671 88.6055C136.238 87.9569 136.934 87.4913 137.761 87.2085C138.587 86.9349 139.466 86.891 140.4 87.0767C141.334 87.2625 142.129 87.6396 142.787 88.2082C143.452 88.7877 143.918 89.4846 144.184 90.2989C144.459 91.115 144.509 91.967 144.332 92.8549C144.13 93.871 143.7 94.718 143.042 95.396C142.382 96.0831 141.558 96.5141 140.572 96.689L140.87 95.1923Z" fill="black" fill-opacity="0.5"/>
<path d="M140.311 105.369L131.296 101.635L131.783 100.458L140.798 104.192L140.311 105.369Z" fill="black" fill-opacity="0.5"/>
<path d="M123.983 114.303L124.691 113.244L133.998 113.3L127.538 108.983L128.246 107.924L136.371 113.353L135.663 114.412L126.367 114.364L132.816 118.673L132.108 119.732L123.983 114.303Z" fill="black" fill-opacity="0.5"/>
<path d="M119.075 122.646L122.085 119.637L121.105 117.548L122.055 116.598L126.421 125.953L125.381 126.992L116.036 122.617L116.986 121.666L119.075 122.646ZM120.065 123.122L124.797 125.359L122.56 120.627L120.065 123.122Z" fill="black" fill-opacity="0.5"/>
<path d="M99.8963 130.407L101.073 129.919L105.901 141.573L104.724 142.061L99.8963 130.407Z" fill="black" fill-opacity="0.5"/>
</svg>
