<svg width="20" height="21" viewBox="0 0 20 21" fill="none" xmlns="http://www.w3.org/2000/svg">
<path fill-rule="evenodd" clip-rule="evenodd" d="M17.0849 2.92033C15.2045 1.03819 12.7044 0.00083725 10.0411 0C4.55297 0 0.0862368 4.46589 0.083725 9.95658C0.0828878 11.7115 0.541701 13.4245 1.41328 14.9349L0 20.094L5.27802 18.7092C6.73233 19.5029 8.36999 19.9207 10.0361 19.9215H10.0403C15.5276 19.9215 19.9952 15.4548 19.9977 9.96411C19.9994 7.30417 18.9646 4.80163 17.0849 2.92033ZM10.0411 18.2395H10.0378C8.55251 18.2395 7.09653 17.8401 5.82559 17.0858L5.52334 16.9066L2.39119 17.7279L3.2276 14.6736L3.03085 14.3605C2.20197 13.0427 1.76492 11.5197 1.76576 9.95658C1.76743 5.39356 5.48064 1.6812 10.0453 1.6812C12.2557 1.6812 14.3337 2.54357 15.896 4.10755C17.4583 5.67237 18.3182 7.75126 18.3174 9.96244C18.3148 14.5271 14.6025 18.2395 10.0411 18.2395ZM14.5807 12.0413C14.332 11.9166 13.1088 11.3146 12.8803 11.2317C12.6525 11.1488 12.4867 11.107 12.3201 11.3556C12.1535 11.6043 11.678 12.1652 11.5323 12.3319C11.3874 12.4976 11.2418 12.5186 10.9931 12.3938C10.7444 12.2691 9.94234 12.007 8.99207 11.1589C8.25277 10.4991 7.75294 9.68447 7.60809 9.43497C7.46325 9.18547 7.59302 9.05151 7.71693 8.9276C7.82913 8.81624 7.9656 8.63707 8.09035 8.49139C8.21593 8.34738 8.25696 8.24356 8.34068 8.07695C8.42357 7.91118 8.38255 7.76549 8.31975 7.64074C8.25696 7.51683 7.75963 6.29193 7.55283 5.79377C7.35106 5.30817 7.14593 5.37431 6.99271 5.36677C6.84787 5.35924 6.68209 5.3584 6.51548 5.3584C6.3497 5.3584 6.08011 5.42036 5.85238 5.66986C5.62465 5.91936 4.98164 6.52134 4.98164 7.7454C4.98164 8.9703 5.87331 10.1533 5.99722 10.3191C6.12113 10.4849 7.75126 12.9983 10.2471 14.0758C10.8407 14.332 11.3046 14.4853 11.6654 14.6C12.2615 14.7892 12.8041 14.7624 13.2327 14.6988C13.7108 14.6276 14.7046 14.0968 14.9123 13.5157C15.1199 12.9347 15.1199 12.4357 15.0571 12.3327C14.9951 12.228 14.8294 12.1661 14.5807 12.0413Z" fill="white" fill-opacity="0.8"/>
</svg>
