<svg width="86" height="62" viewBox="0 0 86 62" fill="none" xmlns="http://www.w3.org/2000/svg">
<path d="M8.95848 48.9176C6.45525 37.1043 6.45525 24.8976 8.95848 13.0843C9.28739 11.8846 9.92289 10.7912 10.8025 9.91165C11.6821 9.03205 12.7755 8.39655 13.9751 8.06764C33.1942 4.8837 52.8061 4.8837 72.0251 8.06764C73.2248 8.39655 74.3182 9.03205 75.1978 9.91165C76.0774 10.7912 76.7129 11.8846 77.0418 13.0843C79.545 24.8976 79.545 37.1043 77.0418 48.9176C76.7129 50.1173 76.0774 51.2107 75.1978 52.0903C74.3182 52.9699 73.2248 53.6054 72.0251 53.9343C52.8062 57.1189 33.1941 57.1189 13.9751 53.9343C12.7755 53.6054 11.6821 52.9699 10.8025 52.0903C9.92289 51.2107 9.28739 50.1173 8.95848 48.9176Z" stroke="white" stroke-opacity="0.8" stroke-width="5" stroke-linecap="round" stroke-linejoin="round"/>
<path d="M35.8335 41.751L53.7501 31.001L35.8335 20.251V41.751Z" stroke="white" stroke-opacity="0.8" stroke-width="5" stroke-linecap="round" stroke-linejoin="round"/>
</svg>
